<svg width="41" height="41" viewBox="0 0 41 41" fill="none" xmlns="http://www.w3.org/2000/svg">
<rect x="0.5" y="0.851807" width="40" height="40" rx="20" fill="white" fill-opacity="0.3"/>
<path d="M12.3739 21.168C12.3739 19.7947 12.7637 18.4192 13.5013 17.1902C13.9703 16.4106 14.5599 15.7102 15.2481 15.1152L15.1804 17.1684C15.1724 17.4095 15.3615 17.6114 15.6027 17.6194C15.8439 17.6273 16.0459 17.4383 16.0537 17.197L16.1475 14.3563C16.1804 14.2765 16.1889 14.1887 16.1719 14.1041C16.1549 14.0194 16.1133 13.9417 16.0522 13.8807C15.9911 13.8197 15.9133 13.7782 15.8287 13.7614C15.744 13.7446 15.6563 13.7532 15.5765 13.7862L12.7364 13.8797C12.4952 13.8852 12.304 14.0853 12.3093 14.3265C12.3148 14.5676 12.5149 14.7591 12.756 14.7536C12.7592 14.7536 12.7623 14.7536 12.7654 14.7534L14.4039 14.6993C13.7616 15.3002 13.2056 15.9872 12.7517 16.7406C11.9329 18.1053 11.5001 19.6363 11.5001 21.168C11.5001 23.6149 12.509 25.8708 14.3408 27.5194C15.9636 28.9799 18.1479 29.8518 20.1838 29.8518C20.4251 29.8518 20.6208 29.6563 20.6208 29.4149C20.6208 29.1735 20.4251 28.9779 20.1838 28.9779C18.3578 28.9779 16.3921 28.19 14.9255 26.8699C13.2803 25.3889 12.3739 23.3641 12.3739 21.168ZM19.7469 12.8115C19.7469 13.0529 19.9424 13.2484 20.1838 13.2484C22.0096 13.2484 23.9756 14.0364 25.4423 15.3565C27.0875 16.8374 27.9935 18.8622 27.9935 21.0583C27.9935 22.4316 27.604 23.8071 26.8664 25.0361C26.3973 25.8157 25.8078 26.516 25.1196 27.1112L25.1874 25.058C25.1952 24.8168 25.006 24.6149 24.7649 24.607C24.5238 24.5991 24.3218 24.788 24.3138 25.0293L24.2201 27.8701C24.1872 27.9499 24.1787 28.0376 24.1956 28.1223C24.2125 28.2069 24.2542 28.2846 24.3153 28.3456C24.3763 28.4066 24.4541 28.4482 24.5388 28.465C24.6235 28.4818 24.7112 28.4731 24.791 28.4401L27.631 28.3466C27.8725 28.3411 28.0638 28.1411 28.0583 27.8998C28.053 27.6587 27.8529 27.4672 27.6117 27.4727C27.6085 27.4727 27.6055 27.4727 27.6022 27.473L25.9637 27.527C26.606 26.9261 27.162 26.2391 27.616 25.4858C28.435 24.121 28.8677 22.59 28.8677 21.0583C28.8677 18.6115 27.8589 16.3555 26.0271 14.7069C24.4042 13.2465 22.2199 12.3745 20.1838 12.3745C19.9424 12.3745 19.7469 12.5701 19.7469 12.8115Z" fill="white"/>
</svg>
