<svg width="226" height="77" viewBox="0 0 226 77" fill="none" xmlns="http://www.w3.org/2000/svg">
<path fill-rule="evenodd" clip-rule="evenodd" d="M220.826 8.37664C221.488 4.36279 218.049 0.867299 214.025 1.46482L14.8535 31.0395C12.2753 31.4223 10.2392 33.4258 9.81481 35.9975L5.26655 63.56C4.63113 67.4107 7.78299 70.8335 11.6729 70.5172L208.607 54.5004C211.352 54.2772 213.592 52.2141 214.041 49.497L220.826 8.37664Z" fill="#FFF4AF"/>
<path d="M30.184 50.1986C31.971 50.5646 33.1021 51.6227 33.2743 53.1813C33.6156 56.2705 30.3026 58.4112 25.9054 58.897C23.5954 59.1523 21.1311 59.0301 18.9145 58.3454L19.8846 54.6324C21.6313 55.1437 23.4463 55.2531 25.311 55.047C26.953 54.8656 27.9861 54.2726 27.8846 53.3542C27.7955 52.5471 27.1711 52.2499 25.9465 52.3851L22.6903 52.7449L22.349 49.6557L25.1321 49.3482C26.3845 49.2098 26.9537 48.7526 26.8707 48.0011C26.7876 47.2497 25.987 46.8874 24.2615 47.0781C22.7587 47.2441 21.2123 47.7812 19.5853 48.6089L17.9486 45.2684C19.9932 44.1411 22.1952 43.4189 24.2825 43.1883C28.4014 42.7332 31.8236 43.8763 32.1311 46.6593C32.288 48.0787 31.4987 49.3491 30.184 50.1986ZM46.0873 41.0891L51.3751 40.5048L53.0417 55.5891L48.0043 56.1456L47.8383 54.6427C46.9686 55.9502 45.5551 56.6697 43.5791 56.888C39.488 57.34 35.844 54.7002 35.3121 49.8855C34.7832 45.0987 37.7661 41.7549 41.8572 41.3029C43.6105 41.1092 45.0852 41.4533 46.2318 42.3971L46.0873 41.0891ZM44.228 52.5626C46.0092 52.3658 47.2562 50.9041 47.001 48.5941C46.7488 46.312 45.2159 45.1855 43.4347 45.3823C41.6535 45.5791 40.4034 47.0131 40.6556 49.2952C40.9108 51.6051 42.4468 52.7594 44.228 52.5626ZM55.6975 40.0273L71.2827 38.3054L72.9493 53.3896L67.6893 53.9707L66.487 43.0889L61.4218 43.6486L62.6241 54.5303L57.3641 55.1115L55.6975 40.0273ZM85.9621 36.6835L91.2499 36.0993L92.9165 51.1835L87.8791 51.7401L87.7039 50.1537C86.6981 51.5043 85.1516 52.295 83.4539 52.4825C79.7246 52.8946 76.7913 51.0777 76.2624 46.2908L75.3308 37.8581L80.6186 37.2739L81.4549 44.8438C81.7132 47.1816 82.7609 47.9955 84.3473 47.8202C85.9058 47.648 87.0444 46.4799 86.7646 43.9473L85.9621 36.6835ZM115.255 33.1936C118.762 32.8061 121.575 34.5518 122.091 39.2274L123.044 47.8549L117.757 48.4391L116.899 40.6743C116.659 38.5035 115.667 37.6835 114.275 37.8373C112.745 38.0064 111.745 39.1591 112.003 41.4969L112.831 48.9833L107.543 49.5676L106.685 41.8028C106.445 39.632 105.481 38.8089 104.061 38.9657C102.503 39.1379 101.504 40.2907 101.762 42.6284L102.589 50.1149L97.3011 50.6991L95.6345 35.6149L100.672 35.0583L100.847 36.6447C101.853 35.2941 103.372 34.5065 105.153 34.3097C107.212 34.0822 109.049 34.6399 110.285 36.1372C111.315 34.5022 113.085 33.4334 115.255 33.1936ZM135.99 31.1562L141.278 30.572L142.944 45.6562L137.907 46.2128L137.741 44.7099C136.871 46.0173 135.458 46.7369 133.482 46.9552C129.391 47.4072 125.747 44.7674 125.215 39.9527C124.686 35.1659 127.669 31.8221 131.76 31.3701C133.513 31.1764 134.988 31.5205 136.135 32.4643L135.99 31.1562ZM134.131 42.6298C135.912 42.433 137.159 40.9712 136.904 38.6613C136.652 36.3792 135.119 35.2527 133.337 35.4495C131.556 35.6463 130.306 37.0802 130.558 39.3624C130.814 41.6723 132.35 42.8266 134.131 42.6298ZM147.267 45.1787L145.6 30.0945L150.86 29.5133L151.478 35.1073L156.905 34.5077L156.287 28.9137L161.575 28.3295L163.242 43.4137L157.954 43.9979L157.37 38.7101L151.943 39.3097L152.527 44.5975L147.267 45.1787ZM167.643 42.9274L165.977 27.8432L171.237 27.2621L171.855 32.856L177.282 32.2564L176.663 26.6625L181.951 26.0783L183.618 41.1625L178.33 41.7467L177.746 36.4589L172.319 37.0585L172.903 42.3463L167.643 42.9274ZM192.949 24.8632L200.546 24.0238L202.213 39.108L197.51 39.6277L197.058 35.5366L194.664 35.801L192.444 40.1873L186.85 40.8053L189.658 35.6217C187.587 34.9772 186.301 33.5417 186.062 31.3709C185.662 27.7529 188.329 25.3737 192.949 24.8632ZM193.521 29.0255C192.102 29.1824 191.35 29.7725 191.482 30.9692C191.618 32.1938 192.424 32.6117 193.871 32.4518L196.682 32.1412L196.304 28.7181L193.521 29.0255Z" fill="#1A1600"/>
</svg>
