<svg width="262" height="81" viewBox="0 0 262 81" fill="none" xmlns="http://www.w3.org/2000/svg">
<path fill-rule="evenodd" clip-rule="evenodd" d="M256.307 8.66494C257.154 4.59203 253.7 0.913792 249.582 1.50341L16.1901 34.9197C13.6894 35.2778 11.6808 37.1638 11.1662 39.6371L5.41515 67.2807C4.5971 71.2128 7.79809 74.8227 11.7998 74.4811L242.335 54.7981C244.977 54.5725 247.158 52.6386 247.699 50.0419L256.307 8.66494Z" fill="#B567CF"/>
<path d="M16.6044 43.481L24.4287 42.6166L26.2736 59.315L21.5504 59.8368L20.1087 46.7882L17.0076 47.1308L16.6044 43.481ZM34.5777 47.6525C39.5157 47.107 41.7009 49.1835 42.0277 52.1415C42.3572 55.1234 40.4153 58.0906 35.3819 58.6467C33.068 58.9024 30.5477 58.6013 28.7354 57.715L30.0364 53.9735C31.4963 54.7297 33.2188 55.0223 34.8171 54.8457C36.4154 54.6692 37.4177 53.9065 37.2938 52.7853C37.1805 51.7595 36.4149 51.168 33.8624 51.45L29.33 51.9508L29.087 42.1019L39.7262 40.9265L40.1295 44.5762L33.4024 45.3195L33.4565 47.7764L34.5777 47.6525ZM53.1301 43.2606L64.819 41.9692L66.2475 54.8985L61.7151 55.3993L60.6845 46.072L57.4164 46.4331L57.5398 48.4236C57.8629 53.0964 57.36 56.1943 53.9965 56.5659C53.3763 56.6345 52.6236 56.5969 51.7676 56.4983L51.5499 52.7797C51.7672 52.7799 51.9607 52.7826 52.1277 52.7642C53.7021 52.5902 53.6846 50.9019 53.5349 48.6729L53.1301 43.2606ZM81.2477 39.9368C85.3507 39.4834 88.6118 41.8999 89.044 45.8121C89.4763 49.7243 86.8266 52.8422 82.7236 53.2955C79.2885 53.675 76.4483 52.0088 75.3634 49.1829L74.0037 49.3331L74.5177 53.9848L70.0091 54.4829L68.5806 41.5536L73.0892 41.0555L73.582 45.5163L74.9656 45.3635C75.4895 42.4563 77.8603 40.311 81.2477 39.9368ZM82.3256 49.6934C83.7808 49.5326 84.8019 48.2849 84.5832 46.305C84.3671 44.3489 83.1008 43.3781 81.6456 43.5388C80.1905 43.6996 79.1667 44.9234 79.3828 46.8795C79.6016 48.8595 80.8705 49.8542 82.3256 49.6934ZM108.012 36.9797C111.018 36.6476 113.429 38.1439 113.871 42.1516L114.688 49.5466L110.156 50.0473L109.421 43.3918C109.215 41.5311 108.365 40.8283 107.172 40.96C105.86 41.105 105.003 42.0931 105.225 44.0969L105.934 50.5138L101.401 51.0146L100.666 44.3591C100.46 42.4984 99.6339 41.7929 98.4173 41.9273C97.0815 42.0749 96.2248 43.0629 96.4462 45.0668L97.1552 51.4837L92.6227 51.9845L91.1943 39.0551L95.512 38.5781L95.6622 39.9378C96.5243 38.7802 97.826 38.1051 99.3527 37.9364C101.118 37.7414 102.692 38.2195 103.751 39.5029C104.635 38.1014 106.151 37.1853 108.012 36.9797ZM124.541 48.6753C120.319 49.1418 116.933 46.6908 116.501 42.7786C116.072 38.8902 118.843 35.7831 123.065 35.3166C127.335 34.8448 130.671 37.2773 131.1 41.1656C131.533 45.0778 128.811 48.2035 124.541 48.6753ZM124.143 45.0732C125.694 44.9019 126.739 43.6516 126.52 41.6716C126.304 39.7155 125.014 38.7473 123.463 38.9187C121.937 39.0873 120.865 40.3164 121.081 42.2725C121.3 44.2525 122.617 45.2419 124.143 45.0732ZM144.06 33.2143L144.458 36.8164L138.137 37.5148L139.167 46.8421L134.659 47.3402L133.23 34.4109L144.06 33.2143ZM153.858 45.4363C149.635 45.9028 146.25 43.4518 145.817 39.5396C145.388 35.6512 148.159 32.5441 152.382 32.0776C156.652 31.6058 159.987 34.0383 160.417 37.9266C160.849 41.8388 158.128 44.9645 153.858 45.4363ZM153.46 41.8342C155.01 41.6629 156.055 40.4126 155.836 38.4326C155.62 36.4765 154.33 35.5084 152.78 35.6797C151.253 35.8484 150.181 37.0775 150.398 39.0336C150.616 41.0135 151.933 42.0029 153.46 41.8342ZM176.968 38.8748L183.409 38.1632L183.822 41.9084L170.822 43.3448L170.495 40.3868L176.099 33.8518C177.298 32.4638 177.404 31.6793 177.328 30.9875C177.209 29.9141 176.422 29.349 174.991 29.5072C173.775 29.6416 172.738 30.3115 172.189 31.4588L168.466 29.8901C169.498 27.6512 171.707 26.0067 174.999 25.643C178.839 25.2186 181.706 26.906 182.049 30.0072C182.228 31.6293 181.938 33.1584 179.795 35.6166L176.968 38.8748ZM193.298 41.1996C189.028 41.6713 185.576 38.8413 184.967 33.3308C184.358 27.8203 187.109 24.305 191.379 23.8332C195.625 23.3641 199.077 26.1942 199.686 31.7046C200.294 37.2151 197.544 40.7304 193.298 41.1996ZM192.871 37.3351C194.374 37.169 195.326 35.7358 194.938 32.2291C194.551 28.7225 193.309 27.5317 191.806 27.6977C190.279 27.8664 189.327 29.2996 189.714 32.8063C190.102 36.313 191.344 37.5037 192.871 37.3351ZM208.8 35.3578L215.241 34.6462L215.655 38.3914L202.654 39.8278L202.327 36.8698L207.931 30.3348C209.13 28.9468 209.237 28.1624 209.16 27.4706C209.042 26.3971 208.255 25.8321 206.823 25.9902C205.607 26.1246 204.57 26.7945 204.021 27.9418L200.298 26.3731C201.33 24.1342 203.539 22.4897 206.831 22.126C210.672 21.7017 213.538 23.3891 213.881 26.4902C214.06 28.1123 213.77 29.6414 211.627 32.0996L208.8 35.3578ZM222.822 26.8545C227.76 26.309 229.945 28.3855 230.272 31.3435C230.602 34.3254 228.66 37.2926 223.626 37.8487C221.313 38.1044 218.792 37.8033 216.98 36.917L218.281 33.1755C219.741 33.9317 221.463 34.2243 223.062 34.0477C224.66 33.8712 225.662 33.1085 225.538 31.9873C225.425 30.9615 224.659 30.37 222.107 30.652L217.575 31.1528L217.332 21.3039L227.971 20.1285L228.374 23.7783L221.647 24.5215L221.701 26.9784L222.822 26.8545Z" fill="white"/>
</svg>
