<svg width="16" height="17" viewBox="0 0 16 17" fill="none" xmlns="http://www.w3.org/2000/svg">
<circle cx="8" cy="8.85181" r="8" fill="#008C57"/>
<path d="M7.61513 12.7141C7.58861 12.7141 7.56237 12.7087 7.53807 12.698C7.51376 12.6874 7.49192 12.6718 7.47392 12.6524L3.66648 8.5338C3.6411 8.50634 3.62427 8.47208 3.61806 8.43521C3.61185 8.39834 3.61652 8.36045 3.6315 8.3262C3.64649 8.29194 3.67113 8.26279 3.70243 8.24232C3.73372 8.22186 3.7703 8.21095 3.80769 8.21095H5.64038C5.6679 8.21096 5.6951 8.21686 5.72014 8.22827C5.74518 8.23968 5.76748 8.25633 5.78554 8.27709L7.058 9.74101C7.19552 9.44705 7.46173 8.95759 7.92888 8.36117C8.6195 7.47943 9.90408 6.18268 12.1018 5.01207C12.1443 4.98945 12.1937 4.98358 12.2403 4.99562C12.2869 5.00765 12.3273 5.03673 12.3535 5.07709C12.3797 5.11746 12.3899 5.16618 12.3819 5.21364C12.3739 5.26111 12.3484 5.30386 12.3105 5.33345C12.3021 5.34001 11.4547 6.00732 10.4795 7.22961C9.58196 8.35442 8.38884 10.1936 7.80175 12.5681C7.79143 12.6098 7.76745 12.6468 7.73361 12.6733C7.69978 12.6998 7.65805 12.7142 7.61507 12.7142L7.61513 12.7141Z" fill="white"/>
</svg>
