<svg width="16" height="17" viewBox="0 0 16 17" fill="none" xmlns="http://www.w3.org/2000/svg">
<circle cx="8" cy="8.55542" r="8" fill="#B567CF"/>
<path d="M7.61513 12.4178C7.58861 12.4178 7.56237 12.4123 7.53807 12.4016C7.51376 12.391 7.49192 12.3755 7.47392 12.356L3.66648 8.23741C3.6411 8.20996 3.62427 8.17569 3.61806 8.13882C3.61185 8.10195 3.61652 8.06407 3.6315 8.02981C3.64649 7.99555 3.67113 7.96641 3.70243 7.94594C3.73372 7.92547 3.7703 7.91457 3.80769 7.91457H5.64038C5.6679 7.91457 5.6951 7.92048 5.72014 7.93189C5.74518 7.94329 5.76748 7.95994 5.78554 7.9807L7.058 9.44463C7.19552 9.15066 7.46173 8.6612 7.92888 8.06478C8.6195 7.18305 9.90408 5.8863 12.1018 4.71568C12.1443 4.69306 12.1937 4.68719 12.2403 4.69923C12.2869 4.71127 12.3273 4.74034 12.3535 4.7807C12.3797 4.82107 12.3899 4.86979 12.3819 4.91726C12.3739 4.96472 12.3484 5.00747 12.3105 5.03707C12.3021 5.04362 11.4547 5.71093 10.4795 6.93322C9.58196 8.05803 8.38884 9.89726 7.80175 12.2717C7.79143 12.3134 7.76745 12.3505 7.73361 12.3769C7.69978 12.4034 7.65805 12.4178 7.61507 12.4178L7.61513 12.4178Z" fill="white"/>
</svg>
