<svg width="30" height="30" viewBox="0 0 30 30" fill="none" xmlns="http://www.w3.org/2000/svg">
<rect x="0.5" y="0.5" width="29" height="29" rx="7.5" stroke="white"/>
<g clip-path="url(#clip0_63_2673)">
<path d="M15 12.4324C13.5832 12.4324 12.4324 13.5832 12.4324 15C12.4324 16.4168 13.5832 17.5703 15 17.5703C16.4168 17.5703 17.5704 16.4168 17.5704 15C17.5704 13.5832 16.4168 12.4324 15 12.4324Z" fill="white"/>
<path d="M18.8751 8H11.1248C9.40279 8 8 9.40279 8 11.1248V18.8751C8 20.5999 9.40279 21.9999 11.1248 21.9999H18.8751C20.5999 21.9999 21.9999 20.5999 21.9999 18.8751V11.1248C21.9999 9.40279 20.5999 8 18.8751 8ZM15 19.5359C12.4996 19.5359 10.464 17.5004 10.464 15C10.464 12.4996 12.4996 10.4668 15 10.4668C17.5004 10.4668 19.5359 12.4996 19.5359 15C19.5359 17.5004 17.5004 19.5359 15 19.5359ZM19.6311 11.29C19.1019 11.29 18.6707 10.8616 18.6707 10.3324C18.6707 9.80319 19.1019 9.37199 19.6311 9.37199C20.1603 9.37199 20.5915 9.80319 20.5915 10.3324C20.5915 10.8616 20.1603 11.29 19.6311 11.29Z" fill="white"/>
</g>
<defs>
<clipPath id="clip0_63_2673">
<rect width="14" height="14" fill="white" transform="translate(8 8)"/>
</clipPath>
</defs>
</svg>
