<svg width="41" height="41" viewBox="0 0 41 41" fill="none" xmlns="http://www.w3.org/2000/svg">
<rect x="0.5" y="0.851807" width="40" height="40" rx="20" fill="white" fill-opacity="0.3"/>
<path d="M24.25 20.8518C24.2501 20.9339 24.2339 21.0152 24.2025 21.091C24.1711 21.1669 24.125 21.2357 24.0669 21.2937L17.8169 27.5437C17.5726 27.7879 17.1772 27.7879 16.9331 27.5437C16.689 27.2995 16.6889 26.904 16.9331 26.6599L22.7412 20.8518L16.9331 15.0437C16.6889 14.7995 16.6889 14.404 16.9331 14.1599C17.1773 13.9159 17.5728 13.9157 17.8169 14.1599L24.0669 20.4099C24.125 20.4679 24.1711 20.5368 24.2025 20.6126C24.2339 20.6884 24.2501 20.7697 24.25 20.8518Z" fill="white"/>
</svg>
