<svg width="30" height="30" viewBox="0 0 30 30" fill="none" xmlns="http://www.w3.org/2000/svg">
<rect x="0.5" y="0.5" width="29" height="29" rx="7.5" stroke="white"/>
<g clip-path="url(#clip0_63_2668)">
<path d="M13.4932 16.8557L13.2616 20.113C13.593 20.113 13.7365 19.9707 13.9086 19.7997L15.462 18.3152L18.6808 20.6724C19.2711 21.0014 19.6871 20.8282 19.8463 20.1293L21.9591 10.229L21.9597 10.2284C22.147 9.35574 21.6441 9.01449 21.069 9.22857L8.64982 13.9833C7.80223 14.3123 7.81506 14.7848 8.50573 14.9989L11.6808 15.9865L19.0559 11.3717C19.403 11.1419 19.7186 11.2691 19.459 11.4989L13.4932 16.8557Z" fill="white"/>
</g>
<defs>
<clipPath id="clip0_63_2668">
<rect width="14" height="14" fill="white" transform="translate(8 8)"/>
</clipPath>
</defs>
</svg>
