<svg width="133" height="66" viewBox="0 0 133 66" fill="none" xmlns="http://www.w3.org/2000/svg">
<path fill-rule="evenodd" clip-rule="evenodd" d="M127.478 7.04535C127.67 3.19663 124.235 0.167912 120.441 0.839146L11.4457 20.1196C8.68996 20.6071 6.63719 22.9349 6.49822 25.7299L5.13157 53.2183C4.95414 56.787 7.9157 59.7189 11.4824 59.5056L119.841 53.0238C122.896 52.8411 125.323 50.3888 125.475 47.3325L127.478 7.04535Z" fill="#FFF4AF"/>
<path d="M31.3853 31.3523L31.8496 35.5547L24.4745 36.3696L25.6767 47.2514L20.4167 47.8325L18.7502 32.7483L31.3853 31.3523ZM44.2663 29.9292L49.5541 29.3449L51.2207 44.4292L46.1834 44.9857L46.0173 43.4828C45.1476 44.7903 43.7341 45.5098 41.7581 45.7281C37.667 46.1802 34.0231 43.5403 33.4911 38.7256C32.9623 33.9388 35.9451 30.595 40.0362 30.143C41.7895 29.9493 43.2643 30.2934 44.4108 31.2372L44.2663 29.9292ZM42.4071 41.4027C44.1882 41.2059 45.4352 39.7442 45.18 37.4342C44.9279 35.1521 43.3949 34.0256 41.6137 34.2224C39.8326 34.4192 38.5825 35.8532 38.8346 38.1353C39.0898 40.4452 40.6259 41.5995 42.4071 41.4027ZM61.1475 26.5992C57.5852 26.9928 55.7802 25.6992 55.408 22.5852L58.8311 22.207C58.9943 23.4285 59.5473 24.0998 60.8275 23.9584C62.0799 23.82 62.5844 23.0318 62.4491 21.8073L65.928 21.4229C66.2723 24.54 64.7376 26.2025 61.1475 26.5992ZM64.1183 27.7358L69.4061 27.1516L71.0727 42.2358L66.0353 42.7924L65.86 41.206C64.8543 42.5566 63.3078 43.3473 61.6101 43.5348C57.8808 43.9469 54.9475 42.13 54.4186 37.3431L53.487 28.9104L58.7748 28.3262L59.6111 35.8961C59.8694 38.2339 60.9171 39.0478 62.5035 38.8725C64.062 38.7003 65.2006 37.5322 64.9208 34.9996L64.1183 27.7358ZM84.8117 25.4495L89.849 24.893L91.2112 37.222C91.8415 42.9273 88.9114 45.9835 83.2896 46.6046C80.3952 46.9244 77.5662 46.5609 75.5849 45.4558L77.0962 41.5422C78.4593 42.4057 80.5864 42.7904 82.3676 42.5936C85.2063 42.28 86.2616 40.8676 86.0002 38.502L85.9449 38.001C85.0474 39.3115 83.5812 40.0651 81.6609 40.2772C77.6533 40.72 73.9443 38.2564 73.4524 33.8035C72.9635 29.3784 76.0452 26.1646 80.0528 25.7218C82.1401 25.4912 83.8281 25.9808 85.0146 27.2864L84.8117 25.4495ZM82.449 35.9364C84.3415 35.7273 85.5947 34.3212 85.3917 32.4844C85.1888 30.6476 83.662 29.5768 81.7695 29.7859C79.877 29.9949 78.5929 31.3763 78.7959 33.2131C78.9988 35.05 80.5565 36.1455 82.449 35.9364ZM104.713 23.2507L110.001 22.6665L111.363 34.9955C111.994 40.7008 109.091 43.754 103.609 44.3597C100.742 44.6764 97.9967 44.3037 96.0432 43.1955L97.5546 39.2818C98.862 40.1515 100.906 40.5455 102.659 40.3518C105.386 40.0504 106.414 38.6411 106.152 36.2755L106.116 35.9415C105.094 37.153 103.678 37.8447 102.064 38.0231C98.3621 38.432 95.4289 36.6151 94.9 31.8283L94.0821 24.4253L99.3699 23.8411L100.093 30.3813C100.354 32.7469 101.374 33.5638 102.96 33.3886C104.519 33.2164 105.682 32.0174 105.405 29.5126L104.713 23.2507Z" fill="#1A1600"/>
</svg>
