<svg width="127" height="66" viewBox="0 0 127 66" fill="none" xmlns="http://www.w3.org/2000/svg">
<path fill-rule="evenodd" clip-rule="evenodd" d="M121.607 7.81905C121.77 3.97916 118.331 0.978266 114.549 1.6596L11.1641 20.2823C8.40081 20.78 6.35223 23.1275 6.23315 25.9328L5.06588 53.4305C4.91532 56.9772 7.86012 59.8785 11.4042 59.6751L114.249 53.7737C117.326 53.5972 119.769 51.1176 119.9 48.0381L121.607 7.81905Z" fill="#FFF4AF"/>
<path d="M31.3853 31.5005L31.8496 35.7029L24.4745 36.5178L25.6767 47.3995L20.4167 47.9807L18.7502 32.8965L31.3853 31.5005ZM44.2663 30.0773L49.5541 29.4931L51.2207 44.5773L46.1834 45.1339L46.0173 43.631C45.1476 44.9384 43.7341 45.658 41.7581 45.8763C37.667 46.3283 34.0231 43.6885 33.4911 38.8738C32.9623 34.087 35.9451 30.7432 40.0362 30.2912C41.7895 30.0975 43.2643 30.4416 44.4108 31.3854L44.2663 30.0773ZM42.4071 41.5509C44.1882 41.3541 45.4352 39.8923 45.18 37.5824C44.9279 35.3003 43.3949 34.1738 41.6137 34.3706C39.8326 34.5674 38.5825 36.0014 38.8346 38.2835C39.0898 40.5934 40.6259 41.7477 42.4071 41.5509ZM61.1475 26.7474C57.5852 27.141 55.7802 25.8474 55.408 22.7334L58.8311 22.3552C58.9943 23.5767 59.5473 24.248 60.8275 24.1066C62.0799 23.9682 62.5844 23.18 62.4491 21.9555L65.928 21.5711C66.2723 24.6881 64.7376 26.3507 61.1475 26.7474ZM64.1183 27.884L69.4061 27.2998L71.0727 42.384L66.0353 42.9406L65.86 41.3542C64.8543 42.7048 63.3078 43.4955 61.6101 43.683C57.8808 44.095 54.9475 42.2782 54.4186 37.4913L53.487 29.0586L58.7748 28.4744L59.6111 36.0443C59.8694 38.3821 60.9171 39.196 62.5035 39.0207C64.062 38.8485 65.2006 37.6804 64.9208 35.1478L64.1183 27.884ZM84.8117 25.5977L89.849 25.0412L91.2112 37.3702C91.8415 43.0755 88.9114 46.1317 83.2896 46.7528C80.3952 47.0726 77.5662 46.7091 75.5849 45.604L77.0962 41.6903C78.4593 42.5539 80.5864 42.9386 82.3676 42.7418C85.2063 42.4282 86.2616 41.0158 86.0002 38.6502L85.9449 38.1492C85.0474 39.4597 83.5812 40.2133 81.6609 40.4254C77.6533 40.8682 73.9443 38.4046 73.4524 33.9517C72.9635 29.5266 76.0452 26.3128 80.0528 25.87C82.1401 25.6394 83.8281 26.129 85.0146 27.4346L84.8117 25.5977ZM82.449 36.0846C84.3415 35.8755 85.5947 34.4694 85.3917 32.6326C85.1888 30.7958 83.662 29.725 81.7695 29.9341C79.877 30.1431 78.5929 31.5245 78.7959 33.3613C78.9988 35.1982 80.5565 36.2937 82.449 36.0846ZM100.147 31.9884C99.7439 28.3425 103.622 26.9844 103.392 24.8971C103.269 23.7839 102.165 23.2297 100.746 23.3866C99.2429 23.5526 98.0735 24.4424 97.4883 25.7747L93.0956 24.0064C94.2969 21.3665 96.8151 19.4263 100.906 18.9743C105.192 18.5007 108.456 19.9993 108.832 23.3947C109.311 27.7362 104.818 28.8806 105.101 31.441L100.147 31.9884ZM103.435 39.062C101.571 39.268 100.146 38.1014 99.9677 36.4872C99.7863 34.8452 100.931 33.4792 102.796 33.2732C104.661 33.0672 106.104 34.1472 106.285 35.7892C106.464 37.4034 105.3 38.856 103.435 39.062Z" fill="#1A1600"/>
</svg>
