<svg width="172.310303" height="70.644653" viewBox="0 0 172.31 70.6447" fill="none" xmlns="http://www.w3.org/2000/svg" xmlns:xlink="http://www.w3.org/1999/xlink">
	<desc>
			Created with Pixso.
	</desc>
	<defs/>
	<path id="Subtract" d="M158.861 1.23975L13.4595 24.7228C10.7668 25.1576 8.70624 27.3541 8.44391 30.069L5.78912 57.5497C5.43201 61.2462 8.48462 64.3761 12.1888 64.1115L156.317 53.8143C159.237 53.6058 161.58 51.3204 161.862 48.4066L165.79 7.74011C166.168 3.82642 162.743 0.612915 158.861 1.23975Z" clip-rule="evenodd" fill="#FFF4AF" fill-opacity="1.000000" fill-rule="evenodd"/>
	<path id="Послуги" d="M39.6 50.45L37.45 30.97L19.17 32.99L21.32 52.47L26.75 51.87L25.08 36.76L32.48 35.94L34.15 51.06L39.6 50.45ZM47.57 48.95Q49.51 49.61 51.77 49.36Q54.15 49.1 55.96 47.94Q56.01 47.91 56.05 47.88Q57.3 47.05 58.1 45.92Q58.49 45.37 58.78 44.76Q58.99 44.31 59.13 43.83Q59.61 42.32 59.42 40.6Q59.22 38.85 58.41 37.47Q58.17 37.07 57.89 36.7Q57.47 36.17 56.98 35.73Q55.95 34.8 54.55 34.28Q54.52 34.27 54.49 34.26Q52.46 33.51 50.04 33.78Q47.6 34.05 45.77 35.25Q44.62 36.01 43.84 37.04Q43.38 37.65 43.04 38.35Q42.78 38.9 42.62 39.46Q42.21 40.89 42.39 42.48Q42.58 44.18 43.36 45.55Q43.61 45.99 43.93 46.4Q44.37 46.96 44.89 47.42Q45.92 48.32 47.29 48.85Q47.43 48.9 47.57 48.95ZM66.57 46.72Q68.66 47.5 71.16 47.22Q73.72 46.94 75.46 45.63Q76.48 44.87 77.1 43.86Q77.54 43.14 77.78 42.29L73.46 40.65Q72.95 42 71.98 42.59Q71.41 42.94 70.67 43.02Q69.82 43.11 69.1 42.84Q68.63 42.66 68.21 42.32Q68.1 42.22 67.99 42.12Q67.16 41.28 66.99 39.77Q66.83 38.31 67.43 37.33Q67.52 37.18 67.63 37.05Q67.95 36.64 68.36 36.37Q69.01 35.94 69.88 35.84Q70.61 35.76 71.25 35.98Q72.32 36.34 73.11 37.54L76.97 35Q76.56 34.22 75.97 33.62Q75.15 32.77 73.98 32.25Q72 31.35 69.44 31.63Q66.94 31.91 65.07 33.12Q63.77 33.96 62.93 35.14Q62.57 35.64 62.3 36.21Q62.09 36.65 61.94 37.11Q61.46 38.62 61.65 40.36Q61.84 42.06 62.62 43.42Q62.87 43.86 63.19 44.27Q63.58 44.77 64.05 45.2Q65.12 46.17 66.57 46.72ZM96.49 44.17L94.82 29.08L81.19 30.59L81.66 36.91Q81.77 38.47 81.71 39.42Q81.65 40.37 81.26 40.97Q81.16 41.13 81.03 41.25Q80.66 41.6 80.02 41.68Q79.85 41.69 79.34 41.7L79.6 46.03Q81.22 46.22 82.2 46.11Q83.8 45.93 84.75 45.05Q84.91 44.89 85.06 44.72Q86.03 43.52 86.28 41.55Q86.55 39.58 86.33 36.61L86.19 34.29L90 33.87L91.2 44.75L96.49 44.17ZM116.37 39.18L115 26.85L109.71 27.44L110.4 33.7Q110.6 35.48 109.9 36.46Q109.61 36.88 109.21 37.14Q108.68 37.5 107.96 37.58Q107.03 37.68 106.39 37.3Q106.18 37.17 106.01 37Q105.28 36.29 105.09 34.57L104.37 28.03L99.08 28.61L99.9 36.02Q100.28 39.43 102.17 40.97Q102.19 40.98 102.21 41Q102.62 41.32 103.07 41.56Q104.76 42.46 107.06 42.21Q108.68 42.03 109.88 41.23Q110.56 40.78 111.11 40.13L111.15 40.46Q111.34 42.19 110.58 43.2Q110.54 43.25 110.51 43.29Q109.66 44.32 107.66 44.54Q106.32 44.68 104.92 44.4Q103.53 44.12 102.55 43.47L101.04 47.39Q102.49 48.21 104.44 48.5Q106.41 48.79 108.61 48.54Q112.8 48.08 114.81 45.74L114.82 45.73Q114.95 45.58 115.07 45.43Q116.8 43.12 116.37 39.18ZM125.04 30L132.42 29.18L131.95 24.98L119.31 26.38L120.98 41.46L126.24 40.88L125.04 30ZM152.04 38.03L150.38 22.95L145.08 23.53L145.88 30.79Q146.08 32.6 145.4 33.56Q145.13 33.95 144.76 34.21Q144.22 34.58 143.47 34.66Q142.52 34.77 141.87 34.37Q140.8 33.72 140.58 31.69L139.74 24.12L134.46 24.71L135.39 33.14Q135.77 36.56 137.67 38.1Q137.68 38.11 137.7 38.12Q138.08 38.42 138.5 38.65Q140.21 39.59 142.58 39.33Q143.63 39.21 144.55 38.81Q144.77 38.71 144.99 38.59Q145.68 38.21 146.23 37.68Q146.55 37.37 146.83 37L147 38.59L152.04 38.03ZM52.75 44.65Q52.14 45.07 51.3 45.16Q50.47 45.25 49.78 44.98Q49.31 44.8 48.91 44.45Q48.85 44.4 48.79 44.34Q47.91 43.49 47.73 41.89Q47.56 40.36 48.21 39.35Q48.27 39.26 48.33 39.18Q48.64 38.77 49.03 38.5Q49.66 38.08 50.51 37.98Q51.36 37.89 52.06 38.17Q52.51 38.35 52.9 38.67Q52.98 38.74 53.05 38.82Q53.91 39.65 54.08 41.19Q54.25 42.79 53.57 43.81Q53.53 43.88 53.48 43.95Q53.16 44.37 52.75 44.65Z" fill="#1A1600" fill-opacity="1.000000" fill-rule="evenodd"/>
</svg>
